<svg width="40" height="40" viewBox="0 0 40 40" fill="none" xmlns="http://www.w3.org/2000/svg">
<path fill-rule="evenodd" clip-rule="evenodd" d="M26.208 36.6667V23.7584H30.5413L31.1897 18.7284H26.2063V15.5167C26.2063 14.06 26.6113 13.0667 28.7013 13.0667H31.3647V8.56671C30.0748 8.42945 28.7785 8.36268 27.4813 8.36671C23.6413 8.36671 21.013 10.7117 21.013 15.0167V18.7284H16.6663V23.7584H21.0113V36.6667H5.17301C4.15634 36.6667 3.33301 35.8434 3.33301 34.8267V5.17337C3.33301 4.15671 4.15634 3.33337 5.17301 3.33337H34.8263C35.843 3.33337 36.6663 4.15671 36.6663 5.17337V34.8267C36.6663 35.8434 35.843 36.6667 34.8263 36.6667H26.208Z" fill="#2365EB"/>
</svg>
